<svg xmlns="http://www.w3.org/2000/svg" viewBox="0 0 40 30"><defs><style>.cls-1,.cls-2{fill:#6cf;}.cls-2{fill-rule:evenodd;}</style></defs><g id="Layer_2" data-name="Layer 2"><g id="Layer_1-2" data-name="Layer 1"><path class="cls-1" d="M11.44,15.5h0a6.84,6.84,0,0,0,3.9-1.91,2.79,2.79,0,0,0,.62-3.1A5,5,0,0,0,13,8,9.93,9.93,0,0,0,8,7.62,6.85,6.85,0,0,0,4.06,9.53a2.82,2.82,0,0,0-.62,3.11h0v0A5,5,0,0,0,6.5,15.11,9.88,9.88,0,0,0,11.44,15.5Zm-7-3v0h0a2.37,2.37,0,0,1,.53-2.63A5.82,5.82,0,0,1,8.27,8.22a8.34,8.34,0,0,1,4.19.33A4.28,4.28,0,0,1,15,10.64a2.35,2.35,0,0,1-.53,2.64,5.81,5.81,0,0,1-3.3,1.62h0A8.41,8.41,0,0,1,7,14.57,4.32,4.32,0,0,1,4.41,12.5Z"/><path class="cls-1" d="M38.13,17.66l-1-.78v-15A1.64,1.64,0,0,0,36.21.55,4,4,0,0,0,34.1,0H29.28a4,4,0,0,0-2.11.55h0a1.65,1.65,0,0,0-.87,1.33v6.4H21.9a7.33,7.33,0,0,1-1.34-.16,7,7,0,0,1-1.22-.39,4.34,4.34,0,0,1-.51-.27c-.23-.15-.46-.3-.62-.42h0a11.11,11.11,0,0,0-3.55-1.75,15.44,15.44,0,0,0-4.4-.62A13.77,13.77,0,0,0,3,6.56C1.15,7.72,0,9.34,0,11.11V17c0,3.59,2.33,6.86,6.1,9.22A27.93,27.93,0,0,0,20.78,30h11l.33-.15h0l6.54-6.25a3.71,3.71,0,0,0,1.32-3A4.22,4.22,0,0,0,38.13,17.66ZM27.29,1.88A1.09,1.09,0,0,1,27.87,1h0A2.75,2.75,0,0,1,29.28.62H34.1A2.75,2.75,0,0,1,35.51,1a1.09,1.09,0,0,1,.58.89V9.54h-8.8Zm-6.51,27.5a26.68,26.68,0,0,1-14-3.65C3.22,23.48,1,20.37,1,17V11.11A5,5,0,0,1,3.71,7a12.52,12.52,0,0,1,6.55-1.7,14,14,0,0,1,4,.56,10.07,10.07,0,0,1,3.2,1.57v0c.18.13.43.3.69.45a5,5,0,0,0,.63.34,7.43,7.43,0,0,0,1.47.47,8.25,8.25,0,0,0,1.61.19h4.44v8l0,0a1.36,1.36,0,0,1,.21.1.73.73,0,0,1,.29.19.42.42,0,0,1,.22.14l0,0h.92l-.33.41a4.92,4.92,0,0,0-1.1,2.86,5,5,0,0,0,.77,3L29.46,27l1.31,2.39ZM31.19,28l-3-4.73a4.68,4.68,0,0,1-.71-2.71,4.54,4.54,0,0,1,1-2.6l.55-.69h2.14Zm-3.9-11.36V10.17h8.8v6.51Zm4.9.63h2.13l.56.69a4.61,4.61,0,0,1,1,2.6,4.68,4.68,0,0,1-.71,2.71l-3,4.73Zm5.65,5.94L33.92,27l2.17-3.45a5,5,0,0,0-.32-5.82l-.33-.41h.92l1,.75A3.68,3.68,0,0,1,39,20.6,3.22,3.22,0,0,1,37.84,23.25Z"/><path class="cls-1" d="M15,19.11a3.86,3.86,0,0,0-2.32-1.89A7.58,7.58,0,0,0,9,16.93a5.12,5.12,0,0,0-3,1.46,2.12,2.12,0,0,0-.48,2.36h0A3.83,3.83,0,0,0,7.8,22.63a7.57,7.57,0,0,0,3.76.3h0a5.24,5.24,0,0,0,3-1.45A2.12,2.12,0,0,0,15,19.11ZM13.7,21.16a4.15,4.15,0,0,1-2.37,1.16h0a6.1,6.1,0,0,1-3-.24,3.08,3.08,0,0,1-1.85-1.48v0h0a1.71,1.71,0,0,1,.38-1.89,4.21,4.21,0,0,1,2.4-1.16,6,6,0,0,1,3,.24,3.07,3.07,0,0,1,1.86,1.5A1.72,1.72,0,0,1,13.7,21.16Z"/><path class="cls-1" d="M22,24.39s0,0,0,0a3,3,0,0,0-1.81-1.45,5.89,5.89,0,0,0-2.95-.23,4.1,4.1,0,0,0-2.34,1.14,1.68,1.68,0,0,0-.38,1.85,3,3,0,0,0,1.83,1.47,5.93,5.93,0,0,0,2.93.24h.05a4,4,0,0,0,2.31-1.14A1.65,1.65,0,0,0,22,24.39Zm-1.24,1.54a3.1,3.1,0,0,1-1.71.84h0a4.42,4.42,0,0,1-2.19-.18,2.26,2.26,0,0,1-1.36-1.09,1.24,1.24,0,0,1,.28-1.38,3.07,3.07,0,0,1,1.75-.85,4.44,4.44,0,0,1,2.19.17,2.26,2.26,0,0,1,1.34,1.08h0A1.24,1.24,0,0,1,20.79,25.93Z"/><path class="cls-2" d="M32.11,29.85H32l0,0h0l.11-.08Z"/><polygon class="cls-2" points="31.98 29.94 31.97 29.95 31.96 29.95 31.95 29.95 31.95 29.95 31.95 29.95 31.95 29.95 31.94 29.96 31.94 29.96 31.94 29.96 31.93 29.96 31.93 29.96 31.93 29.96 31.93 29.96 31.92 29.96 31.92 29.97 31.91 29.97 31.91 29.97 31.91 29.97 31.9 29.97 31.9 29.97 31.9 29.97 31.89 29.97 31.89 29.97 31.88 29.98 31.88 29.98 31.87 29.98 31.87 29.98 31.86 29.98 31.86 29.98 31.85 29.98 31.85 29.98 31.85 29.98 31.81 29.99 31.81 29.99 31.81 29.99 31.8 29.99 31.8 29.99 31.8 29.99 31.79 29.99 31.79 29.99 31.98 29.94 31.98 29.94"/><polygon class="cls-2" points="31.98 29.94 31.98 29.94 31.98 29.94 31.98 29.94"/></g></g></svg>