<svg xmlns="http://www.w3.org/2000/svg" viewBox="0 0 40 30"><defs><style>.cls-1,.cls-2{fill:#6cf;}.cls-1{fill-rule:evenodd;}.cls-2{font-size:12px;font-family:MyriadPro-Regular, Myriad Pro;}</style></defs><g id="Layer_2" data-name="Layer 2"><g id="Layer_1-2" data-name="Layer 1"><path class="cls-1" d="M1.25,29.17h37.5a.52.52,0,0,0,.38-.19.66.66,0,0,0,.16-.44v-.9a.68.68,0,0,0-.16-.44h0a.5.5,0,0,0-.37-.17H1.25a.49.49,0,0,0-.38.18.66.66,0,0,0-.16.44v.9A.66.66,0,0,0,.87,29h0a.52.52,0,0,0,.38.19ZM4,0H36a1.15,1.15,0,0,1,.88.43h0a1.62,1.62,0,0,1,.37,1V26.19h1.54a1.15,1.15,0,0,1,.86.4l0,0a1.58,1.58,0,0,1,.37,1v.9a1.56,1.56,0,0,1-.37,1,1.12,1.12,0,0,1-.88.43H1.25a1.16,1.16,0,0,1-.89-.43h0a1.61,1.61,0,0,1-.36-1v-.9a1.63,1.63,0,0,1,.36-1h0a1.14,1.14,0,0,1,.88-.42H2.8V1.46a1.61,1.61,0,0,1,.36-1h0A1.15,1.15,0,0,1,4,0ZM36,.83H4A.49.49,0,0,0,3.67,1a.69.69,0,0,0-.16.45V26.19h33V1.46A.66.66,0,0,0,36.33,1h0A.49.49,0,0,0,36,.83ZM14,28.44a.39.39,0,0,1-.36-.42.38.38,0,0,1,.36-.41H25.76a.38.38,0,0,1,.36.41.39.39,0,0,1-.36.42ZM5,2a.39.39,0,0,0-.36.42V24.6A.38.38,0,0,0,5,25H35a.38.38,0,0,0,.36-.41V2.42A.39.39,0,0,0,35,2Zm29.73.84H5.31V24.18H34.69Z"/><text class="cls-2" transform="translate(10.79 16.52)">&lt;/&gt;</text></g></g></svg>