<svg xmlns="http://www.w3.org/2000/svg" viewBox="0 0 40 30"><defs><style>.cls-1{fill:#6cf;fill-rule:evenodd;}</style></defs><g id="Layer_2" data-name="Layer 2"><g id="Layer_1-2" data-name="Layer 1"><path class="cls-1" d="M25.35,24.21H9.9L2.15,29.92a.4.4,0,0,1-.55-.07.42.42,0,0,1-.08-.3h0l1-5.34H2.39A2.41,2.41,0,0,1,.7,23.53,2.33,2.33,0,0,1,0,21.88V6.16A2.32,2.32,0,0,1,.7,4.52h0a2.41,2.41,0,0,1,1.68-.68h9.87V2.32A2.28,2.28,0,0,1,13,.69h0A2.45,2.45,0,0,1,14.65,0h23A2.41,2.41,0,0,1,39.3.68,2.29,2.29,0,0,1,40,2.32V18.05a2.29,2.29,0,0,1-.7,1.64h0a2.43,2.43,0,0,1-1.69.68h-.15l1,5.34h0a.42.42,0,0,1-.08.3.4.4,0,0,1-.55.07L30.1,20.37H27.74v1.51a2.33,2.33,0,0,1-.7,1.65h0a2.41,2.41,0,0,1-1.68.68Zm-8.91-6.79H4.91a.39.39,0,1,0,0,.78H16.44a.39.39,0,1,0,0-.78Zm6.39-4.25H4.91a.39.39,0,0,0-.4.39.4.4,0,0,0,.4.39H22.83a.4.4,0,0,0,.4-.39.39.39,0,0,0-.4-.39Zm-2.09-4H4.91a.39.39,0,1,0,0,.77H20.74a.39.39,0,1,0,0-.77ZM35,13.72a.39.39,0,1,1,0,.77H27.74V19.6h2.49a.36.36,0,0,1,.27.1l7,5.17-.92-4.82a.39.39,0,0,1,.32-.45h.7a1.63,1.63,0,0,0,1.13-.46h0a1.55,1.55,0,0,0,.46-1.09V2.32a1.55,1.55,0,0,0-.46-1.09A1.62,1.62,0,0,0,37.61.78h-23a1.58,1.58,0,0,0-1.12.45h0a1.52,1.52,0,0,0-.47,1.09V3.84H25.35a2.38,2.38,0,0,1,2.28,1.62H35a.39.39,0,0,1,.4.39.4.4,0,0,1-.4.39H27.74V9.47h5.88a.39.39,0,1,1,0,.77H27.74v3.48ZM9.77,23.43H25.35A1.6,1.6,0,0,0,26.47,23h0a1.53,1.53,0,0,0,.47-1.1V6.16a1.52,1.52,0,0,0-.47-1.09,1.62,1.62,0,0,0-1.12-.46h-23a1.63,1.63,0,0,0-1.13.46h0A1.55,1.55,0,0,0,.8,6.16V21.88A1.56,1.56,0,0,0,1.26,23a1.62,1.62,0,0,0,1.13.45h.7a.39.39,0,0,1,.32.45l-.92,4.82,7-5.17A.37.37,0,0,1,9.77,23.43Z"/></g></g></svg>